<?xml version="1.0" standalone="no"?>
<!DOCTYPE svg PUBLIC "-//W3C//DTD SVG 1.1//EN" "http://www.w3.org/Graphics/SVG/1.1/DTD/svg11.dtd" >
<svg xmlns="http://www.w3.org/2000/svg">
<metadata>Generated by IcoMoon</metadata>
<defs>
<font id="icomoon" horiz-adv-x="512">
<font-face units-per-em="512" ascent="480" descent="-32" />
<missing-glyph horiz-adv-x="512" />
<glyph unicode="&#x20;" horiz-adv-x="256" d="" />
<glyph unicode="&#xe900;" glyph-name="tripadvisor" d="M313.752 370.937c14.29-2.021 28.284-5.61 42.111-9.859 24.139-7.433 46.916-17.76 68.339-31.156 1.491-0.925 3.481-1.512 5.236-1.512 25.162-0.104 50.314-0.067 75.455-0.089 2.026 0 4.041-0.213 6.062-0.327 0-0.493 0.072-0.702-0.010-0.815-1.174-1.808-2.363-3.589-3.543-5.392-8.534-13.090-15.827-26.783-20.134-41.92-0.467-1.626-0.566-2.987 0.535-4.582 22.399-32.164 29.547-67.476 20.186-105.541-8.207-33.385-27.344-59.414-56.423-77.844-20.783-13.178-43.743-19.454-68.271-19.589-10.306-0.063-20.56 1.325-30.627 3.932-24.529 6.363-45.555 18.591-62.885 37.109-2.286 2.431-4.436 4.971-6.873 7.719-9.163-13.656-18.18-27.089-27.416-40.875-9.2 13.745-18.093 27.048-26.964 40.299-0.613-0.322-0.79-0.358-0.909-0.473-0.202-0.166-0.374-0.369-0.535-0.561-20.96-24.752-47.327-39.925-79.45-45-17.869-2.831-35.566-1.813-52.922 2.971-24.596 6.758-45.498 19.734-62.386 38.88-16.503 18.721-26.767 40.454-30.622 65.165-4.41 23.063 0.961 45.301 2.301 50.698 3.886 15.688 10.659 30.091 19.957 43.338 0.654 0.94 0.883 2.603 0.572 3.724-3.792 13.906-10.326 26.554-17.978 38.668-1.942 3.081-4.27 5.932-6.42 8.888 0 0.337 0 0.685 0 1.029 0.431-0.052 0.857-0.135 1.278-0.135 25.744-0.010 51.483-0.021 77.227 0.031 1.122 0 2.368 0.463 3.325 1.075 18.087 11.605 37.359 20.798 57.607 27.957 14.601 5.153 29.51 9.174 44.714 12.119 14.721 2.846 29.52 4.851 44.475 5.838 36.46 2.805 65.601-1.054 84.987-3.771zM281.479 200.916c0-56.531 45.868-102.716 102.197-102.498 56.542 0.202 102.202 45.088 102.16 102.243-0.041 58.901-47.82 103.178-104.352 102.030-55.81-1.159-99.495-46.143-100.005-101.776zM128.185 303.081c-54.989 0.478-102.934-45.416-101.973-103.874 0.893-54.516 45.826-100.731 103.116-100.238 56.018 0.478 101.043 46.221 101.147 101.615 0.089 56.911-45.488 102.498-102.29 102.498zM133.254 329.75c31.063-1.896 58.35-12.721 81.403-33.687 23.006-20.923 36.486-47.025 41.385-77.72 5.038 30.331 18.165 56.189 40.74 76.904 22.611 20.737 49.534 31.619 80.089 33.92-36.257 16.119-74.489 22.965-113.842 23.723-44.725 0.878-88.228-5.714-129.774-23.142zM383.467 265.411c34.985 0.057 63.321-28.128 63.321-63.077 0-35.084-27.853-62.204-60.713-63.456-36.699-1.408-66.064 27.832-66.053 63.3 0.031 35.873 29.603 63.825 63.445 63.233zM424.733 202.178c-0.015 22.804-18.451 41.338-41.099 41.338-22.908 0-41.556-18.435-41.649-41.172-0.083-22.637 18.659-41.473 41.353-41.535 22.731-0.089 41.406 18.606 41.395 41.369zM126.834 265.411c34.964 0.036 63.341-28.201 63.254-63.144-0.099-35.37-27.977-61.897-60.261-63.368-36.844-1.683-66.573 27.687-66.505 63.347 0.072 36.127 29.847 63.767 63.513 63.165zM168.052 202.318c-0.067 22.944-18.622 41.234-41.785 41.192-22.341-0.042-41.063-18.898-41.011-41.322 0.057-22.685 18.757-41.337 41.514-41.4 22.617-0.052 41.338 18.784 41.28 41.53zM383.498 223.169c11.594 0.010 21.1-9.5 20.991-21.027-0.115-11.553-9.459-20.913-20.861-20.918-11.74 0-21.178 9.277-21.152 20.773 0.021 11.926 9.189 21.163 21.022 21.173zM126.725 223.356c11.77 0.010 21.23-9.392 21.276-21.126 0.047-11.635-9.5-21.188-21.215-21.214-11.994-0.026-21.246 9.241-21.235 21.298 0 11.838 9.231 21.027 21.172 21.043z" />
<glyph unicode="&#xe901;" glyph-name="left-arrow" d="M378.58-32c-2.774 0-5.548 1.062-7.66 3.175l-245.16 245.171c-4.237 4.236-4.237 11.084 0 15.321l245.16 245.16c4.236 4.236 11.084 4.236 15.32 0s4.236-11.084 0-15.32l-237.5-237.5 237.5-237.5c4.236-4.236 4.236-11.084 0-15.32-2.113-2.123-4.887-3.185-7.66-3.185z" />
<glyph unicode="&#xe902;" glyph-name="down-arrow" d="M255.994 90.586c-2.774 0-5.548 1.062-7.66 3.175l-245.16 245.16c-4.237 4.236-4.237 11.084 0 15.32s11.084 4.236 15.32 0l237.5-237.5 237.5 237.5c4.236 4.237 11.084 4.237 15.32 0s4.237-11.084 0-15.32l-245.16-245.16c-2.113-2.123-4.887-3.175-7.66-3.175z" />
<glyph unicode="&#xe903;" glyph-name="right-arrow" d="M133.42-32c-2.774 0-5.547 1.062-7.66 3.175-4.237 4.236-4.237 11.084 0 15.32l237.5 237.5-237.5 237.5c-4.237 4.236-4.237 11.084 0 15.32s11.084 4.237 15.321 0l245.16-245.149c4.236-4.237 4.236-11.084 0-15.321l-245.16-245.171c-2.124-2.113-4.887-3.175-7.66-3.175z" />
<glyph unicode="&#xe904;" glyph-name="up-arrow" d="M501.165 90.586c-2.774 0-5.548 1.062-7.66 3.175l-237.511 237.5-237.5-237.5c-4.236-4.236-11.084-4.236-15.32 0s-4.237 11.084 0 15.32l245.16 245.16c4.237 4.237 11.084 4.237 15.321 0l245.16-245.16c4.236-4.236 4.236-11.084 0-15.32-2.102-2.123-4.875-3.175-7.649-3.175z" />
<glyph unicode="&#xe905;" glyph-name="dif" d="M309.428 202.080c0-29.51-23.923-53.433-53.434-53.433s-53.434 23.923-53.434 53.433c0 29.511 23.923 53.434 53.434 53.434s53.434-23.923 53.434-53.434zM278.661 145.005h-45.339c-37.721 0-68.409-30.7-68.409-68.414v-55.462l0.14-0.861 3.814-1.188c35.998-11.25 67.278-15.007 93.027-15.007 50.273 0 79.411 14.343 81.212 15.246l3.57 1.822 0.368-0.010v55.468c0.026 37.71-30.652 68.409-68.384 68.409zM233.115 357.726c0-47.606-38.593-86.198-86.198-86.198s-86.198 38.592-86.198 86.198c0 47.606 38.593 86.198 86.198 86.198s86.198-38.592 86.198-86.198zM365.062 271.528c47.606 0 86.188 38.608 86.188 86.208 0 47.585-38.597 86.188-86.188 86.188-47.616 0-86.193-38.592-86.193-86.188s38.577-86.208 86.193-86.208zM214.097 153.411c-13.684 11.8-22.387 29.226-22.387 48.664 0 23.839 13.071 44.648 32.397 55.748-12.584 5.007-26.262 7.841-40.611 7.841h-73.142c-60.849 0.005-110.354-49.521-110.354-110.359v-89.468l0.223-1.396 6.16-1.915c56.988-17.81 106.597-23.938 147.675-24.161v38.229c0 37.072 25.609 68.187 60.040 76.816zM401.635 265.669h-73.132c-14.348 0-28.012-2.833-40.601-7.841 19.34-11.1 32.412-31.898 32.412-55.748 0-19.428-8.707-36.854-22.381-48.654 13.783-3.43 26.47-10.482 36.781-20.798 14.986-14.997 23.243-34.902 23.238-56.043v-38.219c41.078 0.223 90.692 6.357 147.67 24.161l6.159 1.915 0.229 1.396v89.468c-0.021 60.839-49.526 110.365-110.375 110.365z" />
<glyph unicode="&#xe906;" glyph-name="facebook" d="M289.372 12h-79.447v212h-53v73.062l53 0.024-0.088 43.044c0 59.606 16.162 95.871 86.376 95.871h58.455v-73.073h-36.531c-27.34 0-28.659-10.211-28.659-29.269l-0.109-36.572h65.707l-7.748-73.062-57.909-0.024-0.053-212z" />
<glyph unicode="&#xe907;" glyph-name="instagram" d="M367.118 472h-222.243c-75.472 0-136.875-61.404-136.875-136.877v-222.243c0-75.475 61.401-136.877 136.875-136.877h222.243c75.478 0 136.88 61.404 136.88 136.877v222.243c0.003 75.472-61.401 136.877-136.88 136.877zM459.993 112.88c0-51.209-41.663-92.87-92.873-92.87h-222.245c-51.207-0.003-92.867 41.66-92.867 92.87v222.243c0 51.207 41.66 92.87 92.867 92.87h222.243c51.209 0 92.873-41.663 92.873-92.87v-222.243zM255.999 351.801c-70.474 0-127.805-57.333-127.805-127.805 0-70.471 57.333-127.799 127.805-127.799s127.805 57.33 127.805 127.799c0 70.474-57.333 127.805-127.805 127.805zM255.999 140.205c-46.205 0-83.799 37.587-83.799 83.793 0 46.207 37.59 83.799 83.799 83.799s83.799-37.591 83.799-83.799c0-46.205-37.594-83.793-83.799-83.793zM389.164 389.117c-8.478 0-16.808-3.433-22.796-9.447-6.017-5.985-9.476-14.317-9.476-22.825 0-8.482 3.462-16.811 9.476-22.826 5.985-5.985 14.317-9.447 22.796-9.447 8.509 0 16.811 3.462 22.825 9.447 6.014 6.014 9.447 14.346 9.447 22.826 0 8.508-3.433 16.84-9.447 22.825-5.985 6.014-14.317 9.447-22.825 9.447z" />
<glyph unicode="&#xe908;" glyph-name="twitter" d="M512 382.789c-18.84-8.354-39.082-14.001-60.33-16.54 21.686 13 38.342 33.585 46.186 58.115-20.299-12.039-42.777-20.78-66.704-25.49-19.16 20.415-46.461 33.17-76.673 33.17-58.011 0-105.041-47.029-105.041-105.038 0-8.233 0.929-16.25 2.72-23.939-87.299 4.382-164.701 46.2-216.508 109.753-9.042-15.514-14.223-33.558-14.223-52.809 0-36.444 18.544-68.596 46.73-87.433-17.219 0.546-33.416 5.271-47.577 13.139-0.010-0.438-0.010-0.878-0.010-1.321 0-50.894 36.209-93.348 84.26-103-8.813-2.399-18.094-3.687-27.674-3.687-6.769 0-13.349 0.66-19.764 1.888 13.368-41.73 52.16-72.103 98.126-72.949-35.95-28.176-81.243-44.967-130.458-44.967-8.479 0-16.84 0.496-25.058 1.471 46.486-29.807 101.701-47.197 161.020-47.197 193.21 0 298.867 160.062 298.867 298.871 0 4.554-0.104 9.084-0.305 13.59 20.526 14.809 38.335 33.309 52.417 54.373z" />
<glyph unicode="&#xe909;" glyph-name="sapam" d="M245.476 473.926l-140.572-245.157c-29.54-51.829-31.822-117.733 0-173.228 47.835-83.425 154.244-112.276 237.669-64.44s112.277 154.243 64.441 237.669l-140.572 245.157c-4.644 8.098-16.323 8.098-20.966 0z" />
<glyph unicode="&#xe90a;" glyph-name="andadores" d="M456.716 183.727l-62.68 62.673c-3.318 3.315-7.815 5.178-12.506 5.178h-107.837v29.983h69.798c9.768 0 17.687 7.916 17.687 17.687v125.375c0 9.77-7.919 17.687-17.687 17.687h-69.798v20.003c0 9.77-7.919 17.687-17.687 17.687s-17.687-7.917-17.687-17.687v-20.003h-107.848c-4.691 0-9.19-1.863-12.508-5.181l-62.681-62.69c-6.905-6.907-6.905-18.104 0-25.010l62.681-62.688c3.318-3.318 7.816-5.181 12.508-5.181h107.848v-29.981h-69.81c-9.768 0-17.687-7.917-17.687-17.687v-125.361c0-9.771 7.919-17.687 17.687-17.687h69.811v-105.159c0-9.771 7.919-17.687 17.687-17.687s17.687 7.916 17.687 17.687v105.159h107.837c4.69 0 9.19 1.863 12.508 5.181l62.68 62.688c3.315 3.315 5.178 7.815 5.178 12.506-0.002 4.69-1.865 9.19-5.183 12.506zM92.802 361.936l44.996 45h188.005v-90h-188.006l-44.995 45zM374.202 126.218h-188.006v89.987h188.008l44.993-44.988-44.995-44.998z" />
<glyph unicode="&#xe90b;" glyph-name="artesanias" d="M132.74 53.334h246.519v-18.963h-246.518v18.963zM132.74 309.333h246.519v-170.666h-246.518v170.666zM172.202 378.728l29.202-37.926 29.222 37.926 29.231-37.926 29.232 37.926 29.202-37.926 29.231 37.926 29.241-37.926 2.493 3.233v41.149h-246.518v-31.080l10.231-13.303zM379.26 328.505l-2.493-3.232-29.241 37.926-29.231-37.926-29.202 37.926-29.232-37.926-29.231 37.926-29.222-37.926-29.203 37.926-29.231-37.926-10.231 13.284v-19.74h246.518zM379.26 72.504l-2.493-3.233-29.241 37.926-29.231-37.926-29.202 37.926-29.232-37.926-29.231 37.926-29.222-37.926-29.203 37.926-29.231-37.926-10.231 13.284v-19.74h246.518zM172.202 122.729l29.202-37.926 29.222 37.926 29.231-37.926 29.232 37.926 29.202-37.926 29.231 37.926 29.241-37.926 2.493 3.233v41.149h-246.518v-31.080l10.231-13.303zM132.74 413.629h246.519v-18.963h-246.518v18.963zM132.74 480h18.963v-56.889h-18.963v56.889zM161.185 480h18.963v-56.889h-18.963v56.889zM189.63 480h18.963v-56.889h-18.963v56.889zM218.075 480h18.963v-56.889h-18.963v56.889zM246.518 480h18.963v-56.889h-18.963v56.889zM274.962 480h18.963v-56.889h-18.963v56.889zM303.408 480h18.963v-56.889h-18.963v56.889zM331.853 480h18.963v-56.889h-18.963v56.889zM360.296 480h18.963v-56.889h-18.963v56.889zM132.74 24.889h18.963v-56.889h-18.963v56.889zM161.185 24.889h18.963v-56.889h-18.963v56.889zM189.63 24.889h18.963v-56.889h-18.963v56.889zM218.075 24.889h18.963v-56.889h-18.963v56.889zM246.518 24.889h18.963v-56.889h-18.963v56.889zM274.962 24.889h18.963v-56.889h-18.963v56.889zM303.408 24.889h18.963v-56.889h-18.963v56.889zM331.853 24.889h18.963v-56.889h-18.963v56.889zM360.296 24.889h18.963v-56.889h-18.963v56.889z" />
<glyph unicode="&#xe90c;" glyph-name="centro-historico" d="M33.87 294.371h56.806v-223.79h-56.806v223.791zM163.162 294.371h56.806v-223.79h-56.806v223.791zM292.455 294.371h56.806v-223.79h-56.806v223.791zM421.748 294.371h56.806v-223.79h-56.806v223.791zM501.656 371.895h-5.477v0.921c0 4.313-2.679 8.176-6.718 9.686l-229.837 85.995c-2.343 0.874-4.908 0.874-7.25 0l-229.846-86c-4.039-1.51-6.718-5.373-6.718-9.686v-0.921h-5.466c-5.71 0-10.344-4.634-10.344-10.343v-34.149c0-5.71 4.634-10.344 10.344-10.344h491.313c5.709 0 10.344 4.634 10.344 10.344v34.149c0 5.714-4.634 10.348-10.344 10.348zM501.656 46.077h-491.313c-5.71 0-10.344-4.634-10.344-10.344v-46.546c0-5.709 4.634-10.344 10.344-10.344h491.313c5.709 0 10.344 4.634 10.344 10.344v46.546c0 5.709-4.634 10.344-10.344 10.344z" />
<glyph unicode="&#xe90d;" glyph-name="iglesias" d="M304 224v96.001h31.996l-63.996 64v32h32v31.998h-32v32.001h-32.001v-32.001h-32.001v-31.998h32.001v-32.001l-64.001-64h32.001v-96.001l-159.997-127.997h63.999v-128.004h95.999v80.001c0 26.494 21.484 48.002 48.002 48.002 26.505 0 48-21.507 48-48.002v-80.001h95.998v128.005h64.001l-160.001 127.997zM272 255.998h-32.001v47.998c0 8.845 7.155 16.004 16.001 16.004s16-7.159 16-16.004v-47.998z" />
<glyph unicode="&#xe90e;" glyph-name="museos" d="M0.052 309.786h511.896v-53.636h-511.896v53.636zM0.052 1.353h511.896v-33.353h-511.896v33.353zM33.718 235.867v-214.126h66.601v102.986c0 32.516 26.556 59.073 59.073 59.073v0c32.516 0 59.073-26.557 59.073-59.073v-103.404h75.174v103.404c0 32.516 26.557 59.073 59.073 59.073v0c32.516 0 59.073-26.557 59.073-59.073v-103.404h66.183v214.544h-444.249zM256 480l-225.523-149.93h450.941l-225.418 149.93zM256 360.6c-16.206 0-29.275 12.546-29.275 28.438s13.069 28.438 29.275 28.438 29.275-12.546 29.275-28.438-13.069-28.438-29.275-28.438z" />
<glyph unicode="&#xe90f;" glyph-name="turista" d="M133.402 400.139v-421.199c-25.548 2.33-45.61 23.541-45.61 49.685v321.818c-0.010 26.154 20.073 47.375 45.61 49.695zM142.085-21.541h4.546v422.139h-4.546v-422.139zM339.571 400.598h11.139v-422.139h-8.025v-10.459h-22.967v10.459h-127.457v-10.459h-22.988v10.459h-8.025v422.139h11.16v66.863c0 6.917 5.601 12.539 12.529 12.539h142.095c6.917 0 12.529-5.621 12.529-12.539v-66.863zM298.318 289.452c10.877 0 19.686 8.808 19.686 19.686s-8.808 19.686-19.686 19.686-19.697-8.809-19.697-19.686 8.819-19.686 19.697-19.686zM269.322 307.916l-39.382-15.496 21.984-55.87 39.382 15.496-21.985 55.87zM197.496 400.598h116.966v54.334h-116.966v-54.334zM192.804 256.998l24.032-5.35 5.361 24.012-24.032 5.361-5.361-24.022zM205.041 206.31c0-16.019 9.018-29.017 20.156-29.017 11.149 0 20.166 12.998 20.166 29.017 0 16.039-9.007 29.037-20.166 29.037-11.138 0-20.156-13.009-20.156-29.037zM268.529 155.12h-56.101v-18.693h56.101v18.693zM319.195 211.712h-56.101v-18.693h56.101v18.693zM365.38-21.541h4.546v422.139h-4.546v-422.139zM378.598 400.139v-421.199c25.538 2.33 45.61 23.541 45.61 49.685v321.818c0.010 26.154-20.062 47.375-45.61 49.695z" />
<glyph unicode="&#xe910;" glyph-name="user" d="M374.724 361.275c0-65.57-53.155-118.724-118.725-118.724s-118.725 53.155-118.725 118.724c0 65.57 53.155 118.725 118.725 118.725s118.725-53.155 118.725-118.725zM256 183.188c-118.846 0-215.189-96.343-215.189-215.188h430.377c0 118.846-96.343 215.188-215.189 215.188z" />
<glyph unicode="&#xe911;" glyph-name="clock" d="M255.996 460c-130.336 0-235.995-105.662-235.995-235.993s105.659-236.007 235.993-236.007 236.001 105.671 236.001 236.007-105.666 235.993-236 235.993zM272.295 195.148c-0.014-0.62-0.104-1.24-0.192-1.861-0.062-0.465-0.090-0.942-0.194-1.401-0.104-0.477-0.286-0.947-0.44-1.425-0.185-0.575-0.356-1.15-0.597-1.694-0.045-0.095-0.062-0.194-0.103-0.289-0.356-0.757-0.768-1.469-1.22-2.142-0.028-0.042-0.067-0.081-0.095-0.123-0.515-0.754-1.102-1.441-1.719-2.084-0.171-0.176-0.346-0.336-0.526-0.502-0.544-0.517-1.113-0.99-1.722-1.425-0.188-0.135-0.368-0.278-0.563-0.407-0.78-0.51-1.596-0.959-2.445-1.326-0.185-0.081-0.375-0.132-0.563-0.204-0.718-0.278-1.444-0.507-2.196-0.682-0.269-0.065-0.536-0.123-0.81-0.171-0.962-0.176-1.938-0.298-2.927-0.298-0.199 0-0.404 0.062-0.605 0.070-0.947 0.037-1.885 0.11-2.787 0.303-0.28 0.062-0.559 0.185-0.84 0.261-0.84 0.228-1.662 0.482-2.445 0.833-0.090 0.045-0.185 0.053-0.274 0.095l-90.492 42.683c-8.154 3.845-11.645 13.572-7.803 21.726 3.845 8.149 13.572 11.645 21.726 7.803l67.208-31.695v140.87c0 9.012 7.308 16.322 16.322 16.322s16.322-7.308 16.322-16.322v-166.619h0.003c0-0.099-0.028-0.194-0.028-0.294z" />
<glyph unicode="&#xe912;" glyph-name="phone" d="M483.764 92.224c0.966-7.402-1.291-13.837-6.759-19.308l-64.2-63.714c-2.895-3.218-6.678-5.956-11.344-8.207-4.666-2.254-9.25-3.702-13.755-4.343-0.323 0-1.291-0.082-2.899-0.242s-3.698-0.242-6.274-0.242c-6.115 0-16.012 1.045-29.69 3.139s-30.409 7.243-50.197 15.447c-19.794 8.207-42.239 20.517-67.339 36.925s-51.81 38.938-80.126 67.577c-22.525 22.203-41.191 43.444-55.993 63.716-14.802 20.274-26.709 39.019-35.721 56.233s-15.768 32.822-20.273 46.822-7.561 26.066-9.172 36.203-2.253 18.099-1.93 23.893c0.323 5.793 0.483 9.012 0.483 9.654 0.642 4.506 2.093 9.091 4.343 13.757s4.989 8.446 8.206 11.344l64.2 64.2c4.506 4.506 9.654 6.759 15.448 6.759 4.183 0 7.884-1.208 11.102-3.62s5.953-5.391 8.207-8.928l51.648-97.986c2.895-5.148 3.701-10.78 2.412-16.895s-4.024-11.263-8.207-15.447l-23.652-23.652c-0.642-0.642-1.208-1.69-1.69-3.138s-0.726-2.655-0.726-3.62c1.288-6.759 4.183-14.482 8.689-23.168 3.86-7.724 9.814-17.135 17.86-28.238s19.468-23.893 34.273-38.375c14.482-14.803 27.355-26.306 38.616-34.514 11.262-8.203 20.676-14.238 28.238-18.099s13.354-6.195 17.377-6.995l6.031-1.209c0.642 0 1.693 0.242 3.139 0.726 1.447 0.483 2.493 1.045 3.139 1.692l27.513 27.997c5.796 5.147 12.549 7.723 20.274 7.723 5.473 0 9.813-0.964 13.031-2.895h0.481l93.16-55.028c6.762-4.187 10.781-9.496 12.069-15.932z" />
<glyph unicode="&#xe913;" glyph-name="pdf-file" d="M149.083 217.656c0 13.787-9.573 22.016-26.468 22.016-6.891 0-11.561-0.665-14.010-1.331v-44.272c2.894-0.657 6.453-0.882 11.333-0.882 18.025 0 29.145 9.118 29.145 24.469zM253.653 239.227c-7.571 0-12.453-0.667-15.356-1.334v-98.090c2.897-0.678 7.569-0.678 11.796-0.678 30.691-0.214 50.711 16.682 50.711 52.495 0.225 31.152-18.019 47.606-47.151 47.606zM454.019 296.86h-12.294v59.321c0 0.37-0.058 0.742-0.108 1.117-0.019 2.356-0.769 4.669-2.382 6.502l-98.716 112.766c-0.029 0.029-0.058 0.039-0.079 0.070-0.589 0.657-1.274 1.204-2 1.677-0.214 0.144-0.432 0.265-0.656 0.389-0.628 0.343-1.295 0.627-1.981 0.833-0.186 0.052-0.353 0.128-0.539 0.176-0.745 0.176-1.52 0.287-2.305 0.287h-242.607c-11.079 0-20.078-9.010-20.078-20.079v-163.056h-12.291c-15.848 0-28.698-12.845-28.698-28.698v-149.236c0-15.842 12.85-28.695 28.698-28.695h12.293v-102.156c0-11.068 9-20.080 20.078-20.080h331.293c11.068 0 20.079 9.010 20.079 20.079v102.156h12.294c15.844 0 28.697 12.853 28.697 28.695v149.231c-0.001 15.853-12.854 28.698-28.697 28.698zM90.353 459.917h232.568v-102.728c0-5.546 4.5-10.039 10.039-10.039h88.686v-50.296h-331.293v163.064zM336.832 192.746c0-28.701-10.451-48.49-24.93-60.731-15.776-13.123-39.803-19.348-69.155-19.348-17.569 0-30.022 1.113-38.484 2.221v147.257c12.455 1.997 28.703 3.111 45.831 3.111 28.455 0 46.922-5.12 61.387-16.013 15.563-11.569 25.353-30.026 25.353-56.496zM75.015 114.221v147.924c10.449 1.77 25.137 3.111 45.824 3.111 20.906 0 35.813-4.005 45.819-12.017 9.567-7.558 16.002-20.017 16.002-34.699 0-14.686-4.88-27.141-13.785-35.588-11.565-10.902-28.69-15.798-48.715-15.798-4.442 0-8.459 0.226-11.559 0.672v-53.608l-33.586 0.003zM421.647-6.486h-331.295v96.721h331.293v-96.721zM450.74 236.339h-57.622v-34.255h53.834v-27.584h-53.834v-60.28h-34.015v149.923h91.637v-27.804z" />
<glyph unicode="&#xe914;" glyph-name="actividades" d="M80 336c0-26.472 21.528-48 48-48s48 21.528 48 48-21.528 48-48 48-48-21.528-48-48zM160 336c0-17.648-14.352-32-32-32s-32 14.352-32 32 14.352 32 32 32 32-14.352 32-32zM245.656 250.344l56 56c3.128 3.128 3.128 8.184 0 11.312l-24 24c-2.96 2.96-7.696 3.136-10.864 0.416l-55.072-47.2-53.36-22.872h-94.36c-2.312 0-4.496-0.992-6.016-2.736l-56-64c-1.872-2.136-2.472-5.104-1.568-7.8l24-72c0.736-2.192 2.384-3.968 4.528-4.856 2.144-0.872 4.552-0.8 6.64 0.232l32 16c2.736 1.368 4.416 4.112 4.416 7.008v-135.848c0-22.056 17.944-40 40-40h64c4.416 0 8 3.576 8 8v243.056l59.576 29.792c0.776 0.376 1.472 0.888 2.080 1.496zM72 144.16c0 0.944-0.2 1.888-0.568 2.816l-14.272 35.664 14.84 18.552v-57.032zM172.424 231.16c-2.712-1.36-4.424-4.128-4.424-7.16v-240h-32v128c0 4.424-3.584 8-8 8s-8-3.576-8-8v-128h-8c-13.232 0-24 10.768-24 24v216c0 3.4-2.144 6.424-5.352 7.544-3.2 1.128-6.776 0.104-8.896-2.544l-32-40c-1.8-2.248-2.248-5.296-1.184-7.968l13.272-33.168-17.168-8.584-19.632 58.896 50.592 57.824h92.368c1.080 0 2.16 0.216 3.152 0.648l56 24c0.744 0.32 1.44 0.752 2.056 1.28l50.376 43.168 13.104-13.096-49.424-49.424-62.84-31.416zM112 224h8v-64h16v64h8v16h-32zM512 80c0 26.472-21.528 48-48 48-16.688 0-31.392-8.568-40-21.52-8.608 12.96-23.312 21.52-40 21.52s-31.392-8.568-40-21.52c-8.608 12.96-23.312 21.52-40 21.52-26.472 0-48-21.528-48-48 0-16.688 8.568-31.392 21.52-40-12.96-8.608-21.52-23.312-21.52-40v-32h16v32c0 17.648 14.352 32 32 32s32-14.352 32-32v-32h16v32c0 17.648 14.352 32 32 32s32-14.352 32-32v-32h16v32c0 17.648 14.352 32 32 32s32-14.352 32-32v-32h16v32c0 16.688-8.568 31.392-21.52 40 12.952 8.608 21.52 23.312 21.52 40zM384 112c17.648 0 32-14.352 32-32s-14.352-32-32-32-32 14.352-32 32 14.36 32 32 32zM272 80c0 17.648 14.352 32 32 32s32-14.352 32-32-14.352-32-32-32-32 14.352-32 32zM344 26.48c-3.56 5.36-8.16 9.96-13.52 13.52 5.36 3.56 9.96 8.16 13.52 13.52 3.56-5.36 8.16-9.96 13.52-13.52-5.36-3.56-9.96-8.16-13.52-13.52zM424 26.48c-3.56 5.36-8.16 9.96-13.52 13.52 5.36 3.56 9.96 8.16 13.52 13.52 3.56-5.36 8.16-9.96 13.52-13.52-5.36-3.56-9.96-8.16-13.52-13.52zM464 48c-17.648 0-32 14.352-32 32s14.352 32 32 32 32-14.352 32-32-14.352-32-32-32zM504 480h-296c-4.416 0-8-3.576-8-8v-152h16v144h280v-216c0-13.232-10.768-24-24-24h-248v-16h248c22.056 0 40 17.944 40 40v224c0 4.424-3.584 8-8 8zM336 440h-80c-4.416 0-8-3.576-8-8v-32c0-4.424 3.584-8 8-8h80c4.416 0 8 3.576 8 8v8h24v-8c0-4.424 3.584-8 8-8h32v-24h-32c-4.416 0-8-3.576-8-8v-32c0-4.424 3.584-8 8-8h32v-24h-32c-4.416 0-8-3.576-8-8v-32c0-4.424 3.584-8 8-8h80c4.416 0 8 3.576 8 8v32c0 4.424-3.584 8-8 8h-32v24h32c4.416 0 8 3.576 8 8v32c0 4.424-3.584 8-8 8h-32v24h32c4.416 0 8 3.576 8 8v32c0 4.424-3.584 8-8 8h-80c-4.416 0-8-3.576-8-8v-8h-24v8c0 4.424-3.584 8-8 8zM328 408h-64v16h64v-16zM448 264h-64v16h64v-16zM448 336h-64v16h64v-16zM384 424h64v-16h-64v16zM256 376h88v-16h-88v16zM312 344h32v-16h-32v16zM320 312h24v-16h-24v16zM296 280h48v-16h-48v16zM32 400h4l21.6-28.8c1.544-2.048 3.928-3.2 6.4-3.2 0.84 0 1.696 0.136 2.528 0.416 3.272 1.088 5.472 4.136 5.472 7.584v24h48c13.232 0 24 10.768 24 24v32c0 13.232-10.768 24-24 24h-88c-13.232 0-24-10.768-24-24v-32c0-13.232 10.768-24 24-24zM24 456c0 4.416 3.592 8 8 8h88c4.408 0 8-3.584 8-8v-32c0-4.416-3.592-8-8-8h-56c-4.416 0-8-3.576-8-8v-8l-9.6 12.8c-1.512 2.016-3.88 3.2-6.4 3.2h-8c-4.408 0-8 3.584-8 8v32zM40 448h72v-16h-72v16z" />
<glyph unicode="&#xe915;" glyph-name="alerta" d="M274.73 94.909c0-9.964-8.078-18.043-18.043-18.043s-18.042 8.078-18.042 18.043c0 9.964 8.078 18.043 18.042 18.043s18.043-8.078 18.043-18.043zM240.645 295.887v-138.421c0-8.853 7.174-16.035 16.043-16.035s16.043 7.174 16.043 16.035v138.421c0 8.853-7.174 16.043-16.043 16.043s-16.043-7.182-16.043-16.043zM510.048 22.196l-239.206 449.075c-5.575 10.461-22.745 10.461-28.311 0l-239.197-449.075c-2.647-4.974-2.495-10.973 0.408-15.795 2.895-4.839 8.117-7.798 13.755-7.798h478.379c5.638 0 10.853 2.951 13.764 7.798 2.887 4.822 3.047 10.82 0.408 15.795zM44.218 30.69l212.469 398.923 212.477-398.923h-424.947z" />
<glyph unicode="&#xe916;" glyph-name="auditorias" d="M512-8.608l-76.009 76.010c13.346 17.989 21.252 40.245 21.252 64.314 0 27.346-10.204 52.349-27 71.414v218.293h-149.647v57.785h-130.947v-57.786h-149.649v-323.45h246.309c14.21-43.168 54.905-74.421 102.769-74.421 24.070 0 46.325 7.906 64.315 21.253l76.010-76.010 22.598 22.599zM181.608 447.246h67.028v-25.826h-67.028v25.826zM240.913 131.714c0-0.596 0.013-1.19 0.023-1.784h-208.976v259.531h366.323v-161.435c-14.769 7.577-31.498 11.854-49.205 11.854-59.643-0.001-108.166-48.524-108.166-108.166zM349.078 55.509c-42.019 0-76.206 34.186-76.206 76.206s34.186 76.206 76.206 76.206 76.206-34.186 76.206-76.206c0-42.019-34.186-76.206-76.206-76.206z" />
<glyph unicode="&#xe917;" glyph-name="directorio" d="M358.049 274.161c0-25.742-20.868-46.609-46.61-46.609s-46.61 20.868-46.61 46.609c0 25.742 20.868 46.609 46.61 46.609s46.61-20.868 46.61-46.609zM395.92 127.231c0 46.657-37.822 84.48-84.48 84.48s-84.48-37.822-84.48-84.48h168.96zM52.719 480v-120.079h-23.76v-31.68h23.76v-88.4h-26.4v-31.68h26.4v-88.4h-26.4v-31.68h26.4v-120.079h432.959v511.999h-432.959zM84.4 88.081h26.4v31.68h-26.4v88.4h26.4v31.68h-26.4v88.4h26.4v31.68h-26.4v88.4h52.8v-448.64h-52.8v88.401zM454-0.32h-285.12v448.64h285.12v-448.64z" />
<glyph unicode="&#xe918;" glyph-name="estructura" d="M452.267 129.545v102.989h-187.733v85.922c33.621 4.224 59.733 32.93 59.733 67.678 0 37.64-30.626 68.267-68.267 68.267s-68.267-30.626-68.267-68.267c0-34.748 26.112-63.454 59.733-67.678v-85.922h-187.733v-102.989c-33.621-4.224-59.733-32.93-59.733-67.678 0-37.641 30.626-68.267 68.266-68.267s68.266 30.626 68.266 68.267c0 34.748-26.112 63.454-59.733 67.678v85.922h170.667v-85.922c-33.621-4.224-59.733-32.93-59.733-67.678 0-37.64 30.626-68.267 68.266-68.267s68.267 30.626 68.267 68.267c0 34.748-26.112 63.454-59.733 67.678v85.922h170.666v-85.922c-33.621-4.224-59.733-32.93-59.733-67.678 0-37.64 30.626-68.267 68.267-68.267s68.267 30.626 68.267 68.267c0 34.748-26.112 63.454-59.733 67.678zM204.8 386.134c0 28.237 22.963 51.2 51.2 51.2s51.2-22.963 51.2-51.2-22.963-51.2-51.2-51.2-51.2 22.963-51.2 51.2zM119.466 61.866c0-28.237-22.963-51.2-51.2-51.2s-51.2 22.963-51.2 51.2 22.963 51.2 51.2 51.2 51.2-22.963 51.2-51.2zM307.2 61.866c0-28.237-22.963-51.2-51.2-51.2s-51.2 22.963-51.2 51.2 22.963 51.2 51.2 51.2 51.2-22.963 51.2-51.2zM443.733 10.666c-28.237 0-51.2 22.963-51.2 51.2s22.963 51.2 51.2 51.2 51.2-22.963 51.2-51.2-22.963-51.2-51.2-51.2z" />
<glyph unicode="&#xe919;" glyph-name="indicadores" d="M508.388 29.833l-39.264 34.029c-4.369 3.786-10.981 3.316-14.769-1.054-3.787-4.37-3.315-10.982 1.054-14.769l18.053-15.646h-385.545l97.022 57.537 57.069-32.109c2.541-1.43 5.563-1.736 8.339-0.844s5.053 2.901 6.285 5.543l26.539 56.914 20.457-17.554c4.165-3.575 10.383-3.325 14.249 0.571l62.777 63.252 83.093-57.129c4.764-3.276 11.284-2.070 14.559 2.696 3.276 4.765 2.070 11.283-2.696 14.559l-79.964 54.979 93.683 94.394c4.074 4.104 4.048 10.733-0.057 14.807-4.103 4.074-10.732 4.050-14.807-0.057l-96.357-97.088-53.264 36.621c-2.537 1.745-5.715 2.283-8.685 1.474s-5.434-2.887-6.737-5.677l-33.566-71.983-97.751 83.879c-2.355 2.021-5.481 2.893-8.545 2.381-3.060-0.512-5.737-2.355-7.306-5.032l-102.050-174.048v111.143l89.223 168.971 109.025-107.86c2.232-2.207 5.343-3.288 8.461-2.969 3.123 0.329 5.934 2.043 7.657 4.669l44.050 67.128 37.941-42.45c2.154-2.408 5.283-3.681 8.521-3.469 3.223 0.22 6.164 1.915 7.969 4.594l97.898 145.269c3.231 4.795 1.964 11.303-2.831 14.535s-11.303 1.963-14.535-2.831l-90.376-134.109-38.057 42.578c-2.167 2.425-5.341 3.703-8.584 3.465-3.245-0.242-6.192-1.978-7.976-4.697l-44.507-67.825-109.96 108.785c-2.357 2.331-5.678 3.412-8.954 2.904-3.276-0.503-6.121-2.529-7.668-5.46l-77.297-146.384v217.666l15.646-18.053c2.071-2.389 4.985-3.613 7.917-3.613 2.43 0 4.872 0.842 6.853 2.558 4.369 3.787 4.843 10.4 1.054 14.768l-34.028 39.264c-0.080 0.091-0.153 0.17-0.227 0.25-0.032 0.036-0.064 0.072-0.097 0.107-0.075 0.078-0.146 0.146-0.216 0.213-1.034 1.027-2.287 1.853-3.713 2.384-4.094 1.528-8.708 0.351-11.572-2.952l-34.029-39.263c-3.786-4.37-3.314-10.983 1.056-14.771s10.983-3.314 14.769 1.054l15.646 18.053v-259.992c0-0.021 0-0.041 0-0.062v-141.685h-28.793c-5.783 0-10.47-4.689-10.47-10.47s4.688-10.47 10.47-10.47h28.793v-25.652c0-5.782 4.688-10.47 10.47-10.47s10.47 4.689 10.47 10.47v25.652h413.257l-18.053-15.646c-4.37-3.787-4.843-10.4-1.055-14.768 2.071-2.389 4.985-3.613 7.917-3.613 2.43 0 4.872 0.842 6.853 2.558l39.264 34.029c0.062 0.054 0.114 0.106 0.172 0.159 1.215 1.1 2.183 2.489 2.781 4.093 1.528 4.094 0.351 8.707-2.951 11.569zM323.176 205.222l39.941-27.463-53.243-53.647-17.514 15.028 30.816 66.082zM173.983 213.127l92.686-79.534-24.24-51.983-52.492 29.535c-3.264 1.835-7.257 1.79-10.474-0.118l-100.178-59.408 94.698 161.508z" />
<glyph unicode="&#xe91a;" glyph-name="juridico" d="M303.601 360.642c-3.724 0-7.013 2.684-7.649 6.486-0.698 4.236 2.156 8.207 6.377 8.921l167.796 28.005c4.236 0.667 8.223-2.141 8.937-6.376 0.698-4.22-2.156-8.208-6.377-8.921l-167.796-28.005c-0.419-0.077-0.853-0.108-1.288-0.108zM40.572 316.75c-3.724 0-7.013 2.684-7.649 6.486-0.698 4.22 2.157 8.207 6.377 8.921l169.1 28.222c4.282 0.76 8.223-2.157 8.936-6.377 0.698-4.22-2.156-8.208-6.376-8.921l-169.1-28.222c-0.434-0.077-0.853-0.109-1.288-0.109zM416.365 118.42c-52.721 0-95.62 42.915-95.62 95.635 0 4.282 3.476 7.757 7.757 7.757h175.74c4.282 0 7.757-3.476 7.757-7.757 0-52.736-42.899-95.635-95.635-95.635zM336.632 206.297c3.91-40.557 38.183-72.363 79.733-72.363 41.565 0 75.822 31.806 79.748 72.363h-159.48zM328.502 206.297c-1.21 0-2.436 0.295-3.584 0.885-3.801 1.986-5.26 6.671-3.289 10.473l87.863 168.355c2.684 5.12 11.078 5.12 13.762 0l87.878-168.355c1.97-3.801 0.512-8.487-3.289-10.473-3.786-1.971-8.487-0.497-10.473 3.289l-80.989 155.167-80.989-155.167c-1.397-2.653-4.096-4.173-6.889-4.173zM95.635 68.228c-52.736 0-95.635 42.915-95.635 95.635 0 4.282 3.475 7.757 7.758 7.757h175.74c4.282 0 7.757-3.476 7.757-7.757 0-52.721-42.899-95.635-95.62-95.635zM15.887 156.106c3.91-40.557 38.183-72.363 79.748-72.363 41.549 0 75.823 31.806 79.732 72.363h-159.48zM183.498 156.106c-2.792 0-5.493 1.521-6.888 4.173l-80.989 155.167-80.989-155.167c-1.986-3.801-6.671-5.244-10.473-3.289-3.801 1.986-5.26 6.671-3.289 10.473l87.878 168.355c2.684 5.12 11.078 5.12 13.762 0l87.863-168.355c1.97-3.801 0.512-8.487-3.289-10.473-1.148-0.589-2.374-0.885-3.584-0.885zM256 305.377c-30.379 0-55.094 24.715-55.094 55.094 0 30.363 24.715 55.079 55.094 55.079s55.094-24.715 55.094-55.079c0-30.394-24.716-55.094-55.094-55.094zM256 400.019c-21.83 0-39.579-17.75-39.579-39.563s17.75-39.579 39.579-39.579 39.579 17.765 39.579 39.579-17.75 39.563-39.579 39.563zM256 13.63c-4.282 0-7.757 3.476-7.757 7.757v291.747c0 4.282 3.476 7.757 7.757 7.757s7.757-3.476 7.757-7.757v-291.747c0-4.282-3.476-7.757-7.757-7.757zM256 400.019c-4.282 0-7.757 3.476-7.757 7.757v18.835c0 4.282 3.476 7.758 7.757 7.758s7.757-3.476 7.757-7.758v-18.835c0-4.282-3.476-7.757-7.757-7.757zM358.338 13.63h-204.676c-4.282 0-7.757 3.476-7.757 7.757s3.476 7.757 7.757 7.757h204.676c4.282 0 7.757-3.476 7.757-7.757s-3.46-7.757-7.757-7.757z" />
<glyph unicode="&#xe91b;" glyph-name="licitaciones" d="M166.3 193.8l85.5-86.6 160.4 158.5-0.9-100.1h20.9l1 136.6-135.5 1v-20.8l101.2-0.9-146-145.1-86.6 86.6-135.5-138.7 14.6-14.6zM480.1 469v-469.1h-469.1v-20.9h490v490z" />
<glyph unicode="&#xe91c;" glyph-name="manuales" d="M511.401 80.080c-1.784 5.455-7.763 8.497-13.217 6.609l-9.861-3.252v64.305l16.469 5.455c3.042 1.049 5.455 3.357 6.609 6.504 1.049 3.042 0.734 6.399-1.049 9.127l-196.798 306.316c-2.623 3.986-7.553 5.769-12.168 4.301l-294.252-98.189c-4.301-1.469-7.133-5.455-7.133-9.966v-98.189c0-2.098 0.629-4.091 1.784-5.769l195.749-294.567c1.993-2.938 5.245-4.721 8.707-4.721 1.154 0 2.203 0.21 3.357 0.524l295.197 98.189c5.455 1.888 8.392 7.763 6.609 13.322v0zM196.798 11.683l-175.817 264.565v62.417l174.978-275.474c0.105-0.524 0.21-1.049 0.419-1.574 0.105-0.42 0.315-0.735 0.419-1.154v-48.78zM467.342 76.409l-249.564-82.978v21.086l249.564 85.181v-23.288zM467.342 121.832l-249.564-85.181v20.981l249.564 82.978v-18.777zM485.28 168.828l-273.796-91.055-183.16 288.377 271.908 90.741 185.048-288.063z" />
<glyph unicode="&#xe91d;" glyph-name="notebook" d="M145.066 480h-85.334v-512h392.534v512h-307.2zM76.8-14.933v477.866h51.2v-477.866h-51.2zM435.2-14.933h-290.134v477.866h290.134v-477.866zM392.534 275.2v119.466h-204.8v-119.466h204.8zM204.8 377.6h170.666v-85.334h-170.667v85.334zM230.4 360.534h119.466v-17.067h-119.466v17.067zM230.4 326.4h119.466v-17.066h-119.466v17.066z" />
<glyph unicode="&#xe91e;" glyph-name="participacion" d="M437.048 405.037c-99.824 99.825-262.252 99.825-362.076 0-35.024-35.024-58.982-79.025-69.285-127.248-10.031-46.955-6.745-95.603 9.502-140.683 1.952-5.413 7.925-8.22 13.336-6.269 5.415 1.952 8.221 7.923 6.27 13.336-14.927 41.418-17.945 86.116-8.727 129.264 9.46 44.279 31.467 84.692 63.642 116.866 91.699 91.7 240.905 91.7 332.604 0 43.67-43.671 68.115-101.721 68.832-163.458 0.717-61.625-22.249-120.138-64.665-164.757-0.502-0.528-0.998-1.060-1.495-1.591-0.879-0.94-1.756-1.881-2.673-2.798-91.7-91.7-240.905-91.7-332.604 0-0.488 0.488-0.964 0.985-1.434 1.481-0.025 0.962-0.045 1.911-0.045 2.844 0 2.098 0.040 4.187 0.117 6.269 0.026 0.697 0.078 1.386 0.113 2.080 0.067 1.384 0.132 2.769 0.233 4.146 0.061 0.822 0.15 1.634 0.222 2.452 0.109 1.241 0.212 2.483 0.347 3.719 0.096 0.872 0.221 1.736 0.33 2.605 0.147 1.173 0.288 2.348 0.462 3.515 0.132 0.889 0.288 1.769 0.434 2.654 0.186 1.137 0.367 2.275 0.576 3.406 0.165 0.894 0.355 1.78 0.535 2.67 0.224 1.11 0.445 2.221 0.691 3.324 0.2 0.894 0.422 1.784 0.635 2.673 0.26 1.086 0.519 2.171 0.8 3.248 0.234 0.892 0.488 1.779 0.734 2.666 0.297 1.063 0.592 2.127 0.91 3.183 0.266 0.885 0.55 1.764 0.832 2.644 0.334 1.044 0.667 2.089 1.019 3.125 0.299 0.873 0.612 1.742 0.924 2.611 0.37 1.028 0.742 2.057 1.13 3.077 0.33 0.863 0.672 1.717 1.016 2.574 0.404 1.009 0.813 2.018 1.237 3.019 0.361 0.851 0.733 1.695 1.108 2.539 0.439 0.991 0.884 1.98 1.343 2.961 0.391 0.836 0.79 1.666 1.195 2.494 0.476 0.974 0.957 1.947 1.45 2.911 0.418 0.816 0.844 1.629 1.276 2.438 0.51 0.959 1.030 1.914 1.559 2.864 0.447 0.799 0.898 1.594 1.356 2.385 0.546 0.94 1.1 1.874 1.664 2.805 0.474 0.781 0.954 1.56 1.439 2.334 0.58 0.921 1.169 1.836 1.766 2.744 0.5 0.762 1.004 1.522 1.516 2.275 0.613 0.903 1.24 1.796 1.872 2.687 0.526 0.741 1.052 1.481 1.591 2.212 0.648 0.882 1.309 1.756 1.975 2.624 0.55 0.719 1.1 1.438 1.662 2.149 0.683 0.863 1.38 1.716 2.081 2.565 0.572 0.695 1.142 1.389 1.726 2.075 0.719 0.844 1.453 1.676 2.19 2.506 0.594 0.671 1.185 1.342 1.789 2.002 0.754 0.823 1.523 1.631 2.294 2.438 0.615 0.646 1.226 1.294 1.851 1.931 0.79 0.803 1.598 1.587 2.404 2.376 0.632 0.616 1.259 1.24 1.901 1.848 0.83 0.785 1.679 1.551 2.525 2.318 0.646 0.586 1.284 1.178 1.938 1.754 0.874 0.769 1.769 1.516 2.661 2.268 0.653 0.55 1.299 1.11 1.96 1.651 0.922 0.753 1.867 1.485 2.808 2.221 0.656 0.512 1.303 1.037 1.966 1.541 0.992 0.752 2.004 1.478 3.015 2.207 0.637 0.462 1.262 0.935 1.909 1.387 1.115 0.784 2.256 1.538 3.393 2.298 0.561 0.373 1.11 0.76 1.674 1.129 1.483 0.964 2.993 1.897 4.512 2.817 0.236 0.142 0.465 0.295 0.703 0.438 1.757 1.053 3.54 2.074 5.342 3.067 0.617 0.339 1.25 0.656 1.874 0.988 1.196 0.639 2.389 1.284 3.607 1.894 0.78 0.392 1.578 0.76 2.365 1.141 0.994 0.481 1.983 0.967 2.989 1.431 18.887-18.041 44.081-28.255 70.232-28.255s51.347 10.216 70.234 28.258c36.868-17.063 67.043-47.68 83.426-84.911 2.317-5.265 8.463-7.661 13.734-5.342 5.267 2.318 7.659 8.468 5.341 13.734-17.92 40.726-49.115 73.269-88.603 92.915 11.457 16.806 17.656 36.651 17.656 57.13 0 56.125-45.661 101.786-101.786 101.786-5.754 0-10.42-4.666-10.42-10.42s4.667-10.42 10.42-10.42c44.635 0 80.946-36.313 80.946-80.946 0-19.958-7.418-39.177-20.884-54.111-0.002-0.001-0.003-0.004-0.005-0.005-15.377-17.051-37.266-26.83-60.058-26.83s-44.684 9.779-60.059 26.831c-0.001 0.004-0.005 0.005-0.008 0.007-13.464 14.939-20.881 34.152-20.881 54.107 0 21.785 8.529 42.223 24.017 57.544 4.091 4.048 4.126 10.646 0.078 14.736-4.047 4.094-10.644 4.125-14.736 0.080-19.474-19.26-30.2-44.958-30.2-72.352 0-20.459 6.183-40.29 17.62-57.087-0.102-0.050-0.202-0.106-0.302-0.158-0.813-0.406-1.607-0.837-2.412-1.252-1.235-0.639-2.473-1.274-3.69-1.94-0.862-0.469-1.703-0.962-2.556-1.443-1.137-0.644-2.277-1.285-3.399-1.951-0.87-0.518-1.726-1.052-2.588-1.582-1.077-0.663-2.154-1.325-3.214-2.007-0.867-0.558-1.718-1.13-2.574-1.7-1.030-0.686-2.058-1.375-3.072-2.080-0.852-0.594-1.695-1.2-2.537-1.806-0.99-0.714-1.976-1.431-2.951-2.162-0.835-0.627-1.661-1.262-2.483-1.901-0.955-0.741-1.904-1.488-2.841-2.248-0.813-0.656-1.619-1.322-2.421-1.99-0.922-0.771-1.838-1.551-2.744-2.339-0.786-0.683-1.568-1.37-2.343-2.067-0.894-0.804-1.776-1.617-2.653-2.437-0.757-0.707-1.513-1.416-2.26-2.136-0.867-0.837-1.719-1.687-2.57-2.539-0.726-0.728-1.452-1.454-2.164-2.192-0.843-0.873-1.669-1.763-2.494-2.652-0.689-0.743-1.384-1.483-2.061-2.238-0.825-0.917-1.627-1.853-2.433-2.786-0.648-0.75-1.301-1.493-1.936-2.252-0.818-0.978-1.61-1.974-2.407-2.968-0.592-0.74-1.197-1.469-1.778-2.218-0.837-1.077-1.647-2.175-2.459-3.269-0.51-0.688-1.035-1.363-1.535-2.058-1.028-1.424-2.023-2.869-3.010-4.321-0.259-0.382-0.533-0.753-0.79-1.137-1.228-1.834-2.421-3.689-3.583-5.565-0.401-0.648-0.778-1.31-1.171-1.961-0.752-1.248-1.507-2.495-2.231-3.762-0.451-0.79-0.879-1.594-1.318-2.392-0.634-1.146-1.272-2.289-1.879-3.449-0.451-0.86-0.879-1.73-1.318-2.596-0.566-1.118-1.134-2.235-1.677-3.365-0.433-0.899-0.844-1.81-1.263-2.714-0.514-1.116-1.030-2.231-1.523-3.359-0.406-0.929-0.796-1.867-1.186-2.803-0.471-1.123-0.938-2.248-1.386-3.38-0.377-0.952-0.738-1.909-1.1-2.865-0.427-1.136-0.849-2.274-1.255-3.418-0.344-0.971-0.677-1.947-1.007-2.925-0.388-1.148-0.764-2.3-1.129-3.458-0.311-0.985-0.612-1.973-0.906-2.963-0.347-1.169-0.683-2.341-1.007-3.519-0.275-0.993-0.543-1.988-0.802-2.989-0.308-1.19-0.599-2.385-0.884-3.583-0.238-1-0.474-1.999-0.695-3.003-0.267-1.214-0.516-2.435-0.759-3.658-0.2-1-0.403-2-0.587-3.006-0.228-1.247-0.433-2.501-0.635-3.757-0.16-0.99-0.328-1.978-0.472-2.971-0.189-1.296-0.349-2.598-0.513-3.901-0.12-0.966-0.252-1.93-0.358-2.899-0.15-1.365-0.264-2.739-0.384-4.113-0.080-0.915-0.175-1.827-0.242-2.748-0.111-1.534-0.184-3.074-0.259-4.616-0.037-0.766-0.094-1.526-0.121-2.294-0.084-2.313-0.13-4.635-0.13-6.966 0-2.517 0.085-4.896 0.188-7.524 0.025-0.608 0.109-1.199 0.231-1.775 0.010-0.045 0.016-0.091 0.026-0.135 0.129-0.568 0.309-1.113 0.526-1.641 0.021-0.052 0.040-0.104 0.063-0.156 0.224-0.521 0.492-1.017 0.793-1.49 0.038-0.059 0.075-0.118 0.113-0.175 0.311-0.464 0.656-0.899 1.034-1.306 0.028-0.029 0.047-0.066 0.075-0.096l1.376-1.464c1.038-1.111 2.077-2.219 3.161-3.301 49.913-49.913 115.475-74.869 181.039-74.869s131.126 24.957 181.039 74.869c1.084 1.082 2.122 2.192 3.161 3.301l1.375 1.464c46.177 48.577 71.179 112.272 70.399 179.357-0.776 67.219-27.389 130.417-74.93 177.958z" />
<glyph unicode="&#xe91f;" glyph-name="permisos" d="M501.002 470.869h-378.625c-6.075 0-10.998-4.923-10.998-10.998v-218.642h-100.382c-6.075 0-10.998-4.923-10.998-10.998v-186.411c0-36.771 29.914-66.69 66.687-66.69 0.948 0 378.625 0 378.625 0 36.771 0 66.689 29.917 66.689 66.69v416.051c-0.002 6.075-4.924 10.998-11 10.998zM21.996 43.82v175.413h89.383v-175.413c0-24.642-20.049-44.694-44.694-44.694-24.641 0-44.69 20.051-44.69 44.694zM490.004 43.82c0-24.642-20.048-44.694-44.694-44.694h-329.168c10.703 11.834 17.233 27.518 17.233 44.694v405.053h356.629v-405.053zM296.243 343.839h140.959c6.075 0 10.998 4.923 10.998 10.998s-4.923 10.998-10.998 10.998h-140.959c-6.075 0-10.998-4.923-10.998-10.998s4.924-10.998 10.998-10.998zM296.243 223.019h140.959c6.075 0 10.998 4.923 10.998 10.998s-4.923 10.998-10.998 10.998h-140.959c-6.075 0-10.998-4.923-10.998-10.998s4.924-10.998 10.998-10.998zM296.243 102.196h140.959c6.075 0 10.998 4.923 10.998 10.998s-4.923 10.998-10.998 10.998h-140.959c-6.075 0-10.998-4.923-10.998-10.998 0-6.074 4.924-10.998 10.998-10.998zM194.756 331.462c2.079-2.199 4.972-3.446 7.996-3.446 0.030 0 0.060 0 0.093 0 3.059 0.026 5.968 1.322 8.031 3.583l60.41 66.165c4.096 4.486 3.777 11.442-0.707 15.538-4.486 4.092-11.442 3.778-15.538-0.707l-52.426-57.418-16.32 17.281c-4.173 4.417-11.136 4.613-15.549 0.445-4.417-4.171-4.613-11.13-0.445-15.546l24.453-25.894zM255.042 286.524l-52.426-57.415-16.322 17.279c-4.171 4.419-11.133 4.616-15.547 0.445-4.417-4.171-4.613-11.13-0.445-15.547l24.453-25.89c2.079-2.2 4.972-3.446 7.996-3.446 0.030 0 0.060 0 0.093 0 3.059 0.026 5.968 1.322 8.031 3.582l60.411 66.162c4.092 4.486 3.777 11.442-0.707 15.538s-11.442 3.781-15.538-0.707zM255.042 160.454l-52.426-57.415-16.322 17.279c-4.171 4.42-11.133 4.618-15.547 0.445-4.417-4.171-4.613-11.13-0.445-15.546l24.453-25.89c2.079-2.2 4.972-3.446 7.996-3.446 0.030 0 0.060 0 0.093 0 3.059 0.026 5.968 1.322 8.031 3.582l60.411 66.162c4.092 4.486 3.777 11.442-0.707 15.538-4.486 4.096-11.442 3.779-15.538-0.707z" />
<glyph unicode="&#xe920;" glyph-name="presupuesto" d="M431.667 480h-351.334c-13.713 0-24.866-11.161-24.866-24.866v-462.267c0-13.704 11.153-24.866 24.866-24.866h351.334c13.713 0 24.866 11.161 24.866 24.866v462.267c0 13.704-11.153 24.866-24.866 24.866zM439.466-7.134c0-4.301-3.498-7.8-7.8-7.8h-351.334c-4.301 0-7.799 3.498-7.799 7.8v462.267c0 4.301 3.499 7.8 7.799 7.8h351.334c4.301 0 7.8-3.499 7.8-7.8v-462.267zM98.133 10.666h93.867v93.867h-93.867v-93.866zM115.2 87.466h59.734v-59.733h-59.733v59.733zM209.066 10.666h93.867v93.867h-93.867v-93.866zM226.133 87.466h59.734v-59.733h-59.733v59.733zM320 10.666h93.866v204.8h-93.866v-204.8zM337.067 198.4h59.733v-170.667h-59.733v170.667zM98.133 121.6h93.867v93.866h-93.867v-93.866zM115.2 198.4h59.734v-59.733h-59.733v59.733zM209.066 121.6h93.867v93.866h-93.867v-93.866zM226.133 198.4h59.734v-59.733h-59.733v59.733zM98.133 232.534h93.867v93.866h-93.867v-93.866zM115.2 309.333h59.734v-59.733h-59.733v59.733zM209.066 232.534h93.867v93.866h-93.867v-93.866zM226.133 309.333h59.734v-59.733h-59.733v59.733zM320 232.534h93.866v93.866h-93.866v-93.866zM337.067 309.333h59.733v-59.733h-59.733v59.733zM98.133 352h315.733v85.334h-315.733v-85.334zM115.2 420.267h281.6v-51.2h-281.6v51.2z" />
<glyph unicode="&#xe921;" glyph-name="proyectos" d="M226.906 31.123h-144.282c-13.535 0-24.548 11.012-24.548 24.548v384.752c0 13.536 11.013 24.548 24.548 24.548h216.924v-40.579c0-21.823 17.755-39.578 39.577-39.578h40.579v-152.798c0-4.15 3.365-7.514 7.514-7.514s7.514 3.364 7.514 7.514v160.313c0 0.252-0.013 0.502-0.038 0.751-0.018 0.183-0.049 0.359-0.080 0.538-0.011 0.063-0.017 0.129-0.029 0.192-0.042 0.211-0.096 0.417-0.156 0.62-0.009 0.030-0.014 0.061-0.023 0.091-0.063 0.207-0.139 0.41-0.219 0.609-0.011 0.027-0.019 0.055-0.030 0.081-0.078 0.19-0.168 0.373-0.262 0.553-0.019 0.037-0.034 0.075-0.054 0.112-0.089 0.167-0.19 0.327-0.291 0.487-0.030 0.048-0.057 0.098-0.088 0.145-0.101 0.152-0.214 0.296-0.325 0.439-0.039 0.050-0.073 0.102-0.113 0.151-0.156 0.19-0.32 0.373-0.494 0.546l-80.154 80.154c-0.173 0.173-0.356 0.339-0.546 0.494-0.049 0.040-0.102 0.074-0.151 0.113-0.144 0.112-0.288 0.223-0.439 0.325-0.047 0.032-0.097 0.058-0.146 0.088-0.159 0.101-0.32 0.202-0.487 0.291-0.036 0.020-0.075 0.035-0.112 0.054-0.182 0.093-0.365 0.183-0.553 0.262-0.027 0.011-0.055 0.019-0.081 0.030-0.2 0.080-0.402 0.156-0.609 0.219-0.030 0.009-0.061 0.015-0.091 0.023-0.204 0.059-0.41 0.114-0.62 0.156-0.063 0.013-0.128 0.018-0.192 0.029-0.178 0.031-0.356 0.062-0.538 0.080-0.248 0.025-0.499 0.038-0.75 0.038h-224.439c-21.823 0-39.578-17.755-39.578-39.577v-384.752c0-21.822 17.755-39.577 39.578-39.577h144.282c4.15 0 7.514 3.365 7.514 7.514s-3.364 7.514-7.514 7.514zM314.577 424.392v29.952l54.5-54.5h-29.952c-13.536 0-24.548 11.012-24.548 24.548zM355.156 151.358c-35.082 0-63.625-28.541-63.625-63.625s28.541-63.625 63.625-63.625 63.625 28.541 63.625 63.625-28.541 63.625-63.625 63.625zM355.156 39.139c-26.796 0-48.595 21.8-48.595 48.595s21.8 48.595 48.595 48.595 48.595-21.8 48.595-48.595-21.8-48.595-48.595-48.595zM461.18 62.966l-4.76 2.748c1.619 7.354 2.438 14.738 2.438 22.021s-0.818 14.666-2.438 22.021l4.76 2.748c3.593 2.074 6.162 5.423 7.236 9.43s0.522 8.193-1.552 11.785l-16.031 27.766c-2.074 3.593-5.423 6.163-9.43 7.237-4.007 1.072-8.191 0.522-11.785-1.552l-4.73-2.731c-10.971 9.964-23.991 17.462-38.171 21.983v5.517c0 8.563-6.966 15.531-15.531 15.531h-32.063c-8.563 0-15.531-6.966-15.531-15.531v-5.516c-14.178-4.521-27.199-12.019-38.171-21.983l-4.73 2.731c-3.592 2.074-7.779 2.625-11.784 1.551-4.008-1.074-7.356-3.644-9.43-7.236l-16.031-27.766c-2.075-3.592-2.626-7.778-1.552-11.785s3.643-7.356 7.236-9.43l4.76-2.748c-1.619-7.354-2.438-14.738-2.438-22.021s0.819-14.666 2.438-22.021l-4.758-2.748c-3.593-2.074-6.163-5.423-7.237-9.43s-0.522-8.192 1.552-11.785l16.031-27.767c4.281-7.416 13.798-9.966 21.214-5.684l4.73 2.731c10.971-9.964 23.991-17.462 38.171-21.983v-5.516c0-8.563 6.966-15.531 15.531-15.531h32.063c8.563 0 15.531 6.966 15.531 15.531v5.516c14.178 4.521 27.199 12.019 38.171 21.983l4.73-2.731c7.413-4.279 16.932-1.731 21.214 5.685l16.031 27.767c2.074 3.592 2.625 7.778 1.552 11.785-1.073 4.005-3.643 7.354-7.235 9.428zM440.524 111.428c2.193-7.916 3.305-15.888 3.305-23.695s-1.112-15.779-3.305-23.695c-0.915-3.3 0.518-6.803 3.485-8.514l9.657-5.575c0 0 0 0 0 0 0.044-0.025 0.18-0.104 0.233-0.303s-0.024-0.336-0.050-0.38l-16.031-27.767c-0.139-0.24-0.444-0.322-0.685-0.183l-9.621 5.554c-2.968 1.714-6.718 1.204-9.119-1.243-11.24-11.444-25.44-19.622-41.067-23.651-3.318-0.856-5.638-3.849-5.638-7.276v-11.17c0-0.276-0.224-0.501-0.501-0.501h-32.063c-0.276 0-0.501 0.224-0.501 0.501v11.168c0 3.428-2.32 6.421-5.638 7.276-15.627 4.030-29.829 12.209-41.067 23.651-1.452 1.478-3.397 2.25-5.363 2.25-1.286 0-2.582-0.329-3.755-1.007l-9.62-5.554c-0.24-0.139-0.546-0.056-0.685 0.183l-16.031 27.767c-0.026 0.044-0.104 0.18-0.050 0.38 0.054 0.2 0.188 0.279 0.233 0.305l9.657 5.575c2.966 1.712 4.399 5.214 3.485 8.514-2.193 7.916-3.305 15.888-3.305 23.695s1.112 15.779 3.305 23.695c0.915 3.3-0.518 6.803-3.485 8.514l-9.657 5.575c-0.044 0.026-0.18 0.104-0.233 0.305s0.024 0.334 0.050 0.38l16.032 27.767c0.137 0.24 0.445 0.322 0.685 0.183l9.621-5.554c2.967-1.712 6.717-1.202 9.119 1.243 11.24 11.443 25.44 19.622 41.067 23.651 3.318 0.856 5.638 3.849 5.638 7.276v11.17c0 0.276 0.224 0.501 0.501 0.501h32.063c0.276 0 0.501-0.224 0.501-0.501v-11.168c0-3.428 2.32-6.421 5.638-7.276 15.627-4.030 29.829-12.209 41.067-23.651 2.401-2.444 6.15-2.954 9.119-1.243l9.62 5.554c0.24 0.14 0.546 0.056 0.685-0.183l16.031-27.767c0.025-0.044 0.103-0.18 0.050-0.38s-0.19-0.279-0.233-0.305l-9.657-5.575c-2.967-1.714-4.401-5.215-3.486-8.515zM98.656 336.72h16.032c4.15 0 7.514 3.364 7.514 7.514s-3.365 7.514-7.514 7.514h-16.031c-4.15 0-7.514-3.365-7.514-7.514s3.365-7.514 7.514-7.514zM146.75 336.72h16.031c4.15 0 7.514 3.364 7.514 7.514s-3.364 7.514-7.514 7.514h-16.031c-4.15 0-7.514-3.365-7.514-7.514s3.364-7.514 7.514-7.514zM275 351.75h-80.156c-4.15 0-7.514-3.365-7.514-7.514s3.364-7.514 7.514-7.514h80.156c4.15 0 7.514 3.365 7.514 7.514s-3.365 7.514-7.514 7.514zM218.389 304.156c0 4.15-3.364 7.514-7.514 7.514h-64.125c-4.15 0-7.514-3.364-7.514-7.514s3.364-7.514 7.514-7.514h64.125c4.15 0 7.514 3.364 7.514 7.514zM235.423 304.156c0-4.15 3.364-7.514 7.514-7.514h56.11c4.15 0 7.514 3.364 7.514 7.514s-3.365 7.514-7.514 7.514h-56.109c-4.15 0-7.514-3.364-7.514-7.514zM98.656 296.642h16.032c4.15 0 7.514 3.364 7.514 7.514s-3.365 7.514-7.514 7.514h-16.031c-4.15 0-7.514-3.364-7.514-7.514s3.365-7.514 7.514-7.514zM98.656 256.563h16.032c4.15 0 7.514 3.365 7.514 7.514s-3.365 7.514-7.514 7.514h-16.031c-4.15 0-7.514-3.364-7.514-7.514s3.365-7.514 7.514-7.514zM202.859 256.563h136.266c4.15 0 7.514 3.365 7.514 7.514s-3.365 7.514-7.514 7.514h-136.266c-4.15 0-7.514-3.364-7.514-7.514s3.364-7.514 7.514-7.514zM146.75 271.593c-4.15 0-7.514-3.364-7.514-7.514s3.364-7.514 7.514-7.514h24.047c4.15 0 7.514 3.365 7.514 7.514s-3.364 7.514-7.514 7.514h-24.047zM234.922 231.514h-88.172c-4.15 0-7.514-3.364-7.514-7.514s3.364-7.514 7.514-7.514h88.172c4.15 0 7.514 3.365 7.514 7.514s-3.364 7.514-7.514 7.514zM138.734 152.36h32.063c4.15 0 7.514 3.365 7.514 7.514s-3.364 7.514-7.514 7.514h-32.063c-4.15 0-7.514-3.365-7.514-7.514s3.364-7.514 7.514-7.514zM98.656 216.486h16.032c4.15 0 7.514 3.365 7.514 7.514s-3.365 7.514-7.514 7.514h-16.031c-4.15 0-7.514-3.364-7.514-7.514s3.365-7.514 7.514-7.514zM93.343 154.562c1.467-1.467 3.391-2.202 5.314-2.202s3.847 0.733 5.314 2.202l16.031 16.031c2.934 2.935 2.934 7.693 0 10.627l-16.031 16.031c-2.934 2.935-7.693 2.935-10.627 0s-2.934-7.693 0-10.627l10.718-10.718-10.718-10.718c-2.934-2.933-2.934-7.693 0-10.627z" />
<glyph unicode="&#xe922;" glyph-name="recursos" d="M341.323 206.934c75.279 0 136.529 61.25 136.529 136.529s-61.25 136.529-136.529 136.529c-75.279 0-136.529-61.25-136.529-136.529s61.25-136.529 136.529-136.529zM341.323 462.926c65.875 0 119.464-53.587 119.464-119.464s-53.587-119.463-119.464-119.463-119.464 53.587-119.464 119.464 53.589 119.464 119.464 119.464zM507.411 121.603c-9.411 16.315-30.361 21.887-46.087 12.774l-98.216-47.803c-15.265-7.637-30.676-7.637-64.45-7.637-33.014 0-83.419 8.337-83.923 8.414-4.693 0.759-9.053-2.372-9.822-7.006-0.777-4.651 2.364-9.053 7.006-9.822 2.125-0.358 52.299-8.652 86.739-8.652 35.429 0 53.212 0 72.002 9.394l98.659 48.050c3.942 2.278 8.541 2.884 12.954 1.707 4.395-1.186 8.081-4.011 10.351-7.953 2.287-3.951 2.893-8.55 1.715-12.954s-4.002-8.081-8.192-10.505l-115.375-71.806c-0.239-0.162-24.858-15.666-80.646-15.666-48.365 0-123.106 41.181-124.183 41.77-0.768 0.375-19.276 9.428-55.013 9.428-4.71 0-8.533-3.823-8.533-8.533s3.823-8.533 8.533-8.533c31.035 0 47.026-7.467 47.059-7.467v0.009c3.217-1.792 79.332-43.74 132.135-43.74 61.609 0 88.932 17.748 89.837 18.354l114.957 71.55c7.893 4.557 13.541 11.921 15.897 20.719 2.372 8.815 1.152 18.014-3.405 25.907zM341.323 300.798c-9.411 0-17.067 7.654-17.067 17.067 0 4.71-3.814 8.533-8.533 8.533s-8.533-3.823-8.533-8.533c0-15.855 10.913-29.106 25.599-32.921v-1.212c0-4.71 3.814-8.533 8.533-8.533s8.533 3.823 8.533 8.533v1.212c14.685 3.814 25.599 17.067 25.599 32.921 0 18.824-15.308 34.132-34.132 34.132-9.411 0-17.067 7.654-17.067 17.067s7.654 17.067 17.067 17.067c9.411 0 17.067-7.654 17.067-17.067 0-4.71 3.814-8.533 8.533-8.533s8.533 3.823 8.533 8.533c0 15.855-10.913 29.106-25.599 32.921v1.212c0 4.71-3.814 8.533-8.533 8.533s-8.533-3.823-8.533-8.533v-1.212c-14.685-3.814-25.599-17.067-25.599-32.921 0-18.824 15.308-34.132 34.132-34.132 9.411 0 17.067-7.654 17.067-17.067 0-9.411-7.654-17.067-17.067-17.067zM59.731 206.934h-51.199c-4.71 0-8.533-3.823-8.533-8.533s3.823-8.533 8.533-8.533h51.199c4.702 0 8.533-3.831 8.533-8.533v-187.728c0-4.702-3.831-8.533-8.533-8.533h-51.199c-4.71 0-8.533-3.823-8.533-8.533s3.823-8.533 8.533-8.533h51.199c14.114 0 25.599 11.486 25.599 25.599v187.726c0 14.113-11.486 25.599-25.599 25.599zM110.93 155.736h68.265c9.958 0 26.879-12.697 41.812-23.892 18.721-14.046 36.411-27.306 52.051-27.306h51.199c12.962 0 19.396-5.879 19.567-6.033 1.664-1.664 3.849-2.5 6.033-2.5s4.369 0.836 6.033 2.5c3.336 3.337 3.336 8.729 0 12.065-1.126 1.126-11.604 11.034-31.632 11.034h-51.199c-9.957 0-26.879 12.697-41.812 23.892-18.721 14.046-36.411 27.306-52.052 27.306h-68.265c-4.71 0-8.533-3.823-8.533-8.533s3.823-8.534 8.533-8.534zM42.666 23.473c0 7.057-5.743 12.8-12.8 12.8s-12.8-5.743-12.8-12.8c0-7.057 5.743-12.8 12.8-12.8s12.8 5.743 12.8 12.8z" />
<glyph unicode="&#xe923;" glyph-name="remuneraciones" d="M371.9 336l103.1-27.1 26 103.1-19.8 5.2-16.9-64.3c-43.2 69.7-120.3 116.1-208.3 116.1-135.3 0-245-109.7-245-245s109.7-245 245-245c90.3 0 169.1 48.8 211.6 121.5l-17.7 9.6c-39.1-66.4-111.3-111-193.9-111-124.2 0-224.9 100.7-224.9 224.9s100.7 224.9 224.9 224.9c83.3 0 156.1-45.3 194.9-112.7l-73.8 19.6-5.2-19.8zM266.8 115.3v18.7c17.7 1 31.2 6.2 41.6 15.6s15.6 21.9 15.6 36.4c0 15.6-4.2 27.1-13.5 34.4-9.4 8.3-22.9 14.6-42.7 18.7h-1v47.9c13.5-2.1 25-6.2 36.4-14.6l16.7 22.9c-16.7 11.5-34.4 17.7-53.1 18.7v12.5h-15.6v-12.5c-15.6-1-29.2-6.2-39.6-15.6s-15.6-21.9-15.6-36.4 4.2-26 13.5-33.3c8.3-7.3 22.9-13.5 41.6-17.7v-48.9c-14.6 2.1-29.2 9.4-43.7 21.9l-18.7-21.9c18.7-16.7 39.6-26 62.5-28.1v-18.7h15.6zM267.8 205.9c10.4-3.1 16.7-6.2 20.8-9.4 3.1-4.2 5.2-8.3 5.2-14.6s-2.1-10.4-7.3-14.6c-5.2-4.2-11.5-6.2-18.7-7.3v45.9zM231.4 250.6c-3.1 3.1-5.2 8.3-5.2 13.5 0 6.2 2.1 10.4 6.2 14.6 5.2 4.2 10.4 6.2 18.7 7.3v-44.8c-10.4 3.2-16.6 6.3-19.7 9.4z" />
<glyph unicode="&#xe924;" glyph-name="sentencias" d="M501.786 331.541l-104.223 104.223c-6.599 6.598-15.37 10.232-24.702 10.232s-18.103-3.634-24.7-10.232l-24.493-24.49c-3.769-3.769-6.455-8.203-8.14-12.918l-114.596 20.516c-0.007 0.002-0.018 0.002-0.025 0.004-51.526 10.228-101.835-23.27-112.225-74.803l-5.285-26.219c-5.838-28.953 12.971-57.255 41.923-63.093 28.955-5.833 57.257 12.971 63.095 41.923l3.231 16.033 51.389-4.494 158.523-158.523c4.925-4.925 4.923-12.94 0-17.865-4.923-4.923-12.938-4.925-17.863 0l-65.151 65.151c-4.538 4.538-11.897 4.538-16.433 0-4.538-4.538-4.538-11.896 0-16.433l65.151-65.151c2.386-2.386 3.7-5.558 3.7-8.933s-1.313-6.545-3.7-8.93c-4.927-4.925-12.94-4.923-17.863 0l-65.151 65.151c-4.538 4.538-11.897 4.538-16.433 0-4.538-4.538-4.538-11.896 0-16.433l65.151-65.151c4.925-4.923 4.925-12.938 0-17.863-2.386-2.386-5.558-3.7-8.93-3.7-3.374 0-6.546 1.313-8.933 3.7l-65.151 65.151c-4.538 4.538-11.898 4.538-16.434 0-4.538-4.538-4.538-11.896 0-16.433l65.151-65.151c4.925-4.925 4.923-12.94 0-17.865-4.923-4.923-12.938-4.925-17.863 0l-260.965 260.961c-4.538 4.538-11.898 4.538-16.433 0-4.538-4.538-4.538-11.896 0-16.433l63.571-63.571-18.262-18.262c-5.979-5.979-9.273-13.93-9.273-22.387s3.292-16.409 9.273-22.387l5.959-5.959c5.227-5.228 11.961-8.4 19.223-9.116 0.716-7.261 3.889-13.995 9.117-19.221l5.96-5.962c5.367-5.367 12.198-8.394 19.219-9.093 0.711-7.269 3.887-14.012 9.12-19.244l5.96-5.959c5.228-5.228 11.961-8.4 19.223-9.116 0.716-7.261 3.889-13.995 9.117-19.223l5.959-5.959c6.173-6.173 14.28-9.258 22.387-9.258s16.215 3.086 22.387 9.258l18.262 18.262 43.762-43.762c6.777-6.777 15.785-10.507 25.366-10.507s18.591 3.732 25.366 10.507c6.418 6.418 10.063 14.849 10.433 23.863 9.016 0.37 17.445 4.015 23.865 10.433 6.616 6.616 10.062 15.194 10.42 23.878 8.683 0.358 17.262 3.804 23.877 10.418 6.616 6.616 10.062 15.194 10.42 23.878 8.685 0.358 17.264 3.804 23.878 10.42 13.988 13.988 13.988 36.745 0 50.733l-16.105 16.105 99.897 99.897c13.618 13.622 13.618 35.784-0.002 49.404zM65.148 163.3c-3.283 3.283-3.283 8.623 0 11.906l17.125 17.125 17.865-17.865-17.125-17.125c-3.281-3.283-8.624-3.281-11.906 0l-5.96 5.959zM99.447 129.002c-3.283 3.283-3.283 8.623 0 11.904l17.125 17.125 17.865-17.865-17.123-17.125c-3.283-3.281-8.627-3.283-11.906 0l-5.962 5.962zM133.743 94.703c-1.59 1.59-2.465 3.705-2.465 5.952s0.875 4.361 2.465 5.952l17.125 17.125 17.863-17.863-17.125-17.125c-3.281-3.281-8.623-3.281-11.904 0l-5.959 5.959zM185.906 54.445c-3.281-3.283-8.625-3.281-11.905 0l-5.959 5.959c-3.283 3.283-3.283 8.623 0 11.906l17.125 17.125 17.865-17.865-17.125-17.125zM385.452 198.675l-128.975 128.974c-1.933 1.933-4.482 3.122-7.205 3.359l-65.953 5.766c-0.343 0.031-0.684 0.044-1.020 0.044-5.479 0-10.28-3.864-11.382-9.325l-5.286-26.219c-3.304-16.389-19.317-27.034-35.719-23.731-7.939 1.6-14.781 6.197-19.263 12.943s-6.070 14.834-4.468 22.774l5.285 26.216c7.875 39.063 46.045 64.447 85.124 56.562 0.082-0.016 0.165-0.033 0.248-0.047l112.927-20.218 126.395-126.395-50.707-50.705zM485.35 298.573l-32.759-32.759-112.49 112.49c-2.208 2.208-3.424 5.144-3.424 8.268s1.216 6.059 3.424 8.268l24.493 24.493c2.208 2.208 5.144 3.424 8.266 3.424s6.058-1.216 8.268-3.424l104.222-104.223c2.208-2.208 3.424-5.144 3.424-8.268s-1.216-6.062-3.424-8.27zM468.841 302.228c0-6.418-5.203-11.62-11.62-11.62s-11.62 5.203-11.62 11.62c0 6.418 5.203 11.62 11.62 11.62s11.62-5.203 11.62-11.62z" />
<glyph unicode="&#xe925;" glyph-name="cuenta-publica" d="M503.466 309.333h-256c-5.12 0-8.534-3.413-8.534-8.534v-324.266c0-5.12 3.413-8.534 8.534-8.534h256c5.12 0 8.534 3.413 8.534 8.534v324.267c0 5.12-3.413 8.534-8.534 8.534zM494.933 292.267v-51.2h-238.934c0 5.12 0 13.654 0 17.067h102.4v17.066h-102.4c0 1.707 0 17.066 0 17.066h238.934zM256-14.933c0 0 0 156.16 0 238.934h238.933v-238.934h-238.934zM298.666 206.933h25.6v-17.067h-25.6v17.067zM341.334 206.933h25.6v-17.067h-25.6v17.067zM384 206.933h25.6v-17.067h-25.6v17.067zM426.666 206.933h25.6v-17.067h-25.6v17.067zM281.6 164.267h34.134v-17.067h-34.134v17.067zM332.8 164.267h34.133v-17.067h-34.134v17.067zM384 164.267h34.134v-17.067h-34.134v17.067zM435.2 164.267h34.133v-17.067h-34.134v17.067zM281.6 130.134h34.134v-17.067h-34.134v17.067zM332.8 130.134h34.133v-17.067h-34.134v17.067zM384 130.134h34.134v-17.067h-34.134v17.067zM435.2 130.134h34.133v-17.067h-34.134v17.067zM281.6 96h34.134v-17.067h-34.134v17.067zM332.8 96h34.133v-17.067h-34.134v17.067zM384 96h34.134v-17.067h-34.134v17.067zM435.2 96h34.133v-17.067h-34.134v17.067zM281.6 61.866h34.134v-17.067h-34.134v17.067zM332.8 61.866h34.133v-17.067h-34.134v17.067zM384 61.866h34.134v-17.067h-34.134v17.067zM435.2 61.866h34.133v-17.067h-34.134v17.067zM281.6 27.733h34.134v-17.067h-34.134v17.067zM332.8 27.733h34.133v-17.067h-34.134v17.067zM384 27.733h34.134v-17.067h-34.134v17.067zM435.2 27.733h34.133v-17.067h-34.134v17.067zM17.067 360.534h93.867c5.12 0 8.534 3.413 8.534 8.534v93.866h290.134v-119.466h17.067v128c0 5.12-3.413 8.534-8.534 8.534h-307.2c-0.853 0-1.707 0-2.56-0.853h-0.853c-0.853-0.853-1.707-0.853-2.56-1.707l-102.4-102.4c-0.853-0.853-0.853-1.707-1.706-2.56v-0.853c0-0.853-0.854-1.707-0.854-2.56v0-93.866h17.067c0 0 0 75.946 0 85.333zM102.4 377.6h-73.386l73.386 73.386v-73.386zM213.333 113.067h-93.867v119.466c0 5.12-3.413 8.534-8.534 8.534h-102.4c-5.12 0-8.534-3.413-8.534-8.534v-256c0-5.12 3.413-8.534 8.534-8.534h204.8c5.12 0 8.534 3.413 8.534 8.534v128c0 5.12-3.413 8.534-8.534 8.534zM17.067 96h85.334v-25.6h-85.334v25.6zM102.4 113.067h-85.334v25.6h85.334v-25.6zM102.4 155.733h-85.334v25.6h85.334v-25.6zM17.067 53.334h85.334v-25.6h-85.334v25.6zM119.466 53.334h85.334v-25.6h-85.334v25.6zM204.8 70.4h-85.334v25.6h85.334v-25.6zM17.067 224h85.334v-25.6h-85.334v25.6zM17.067 10.666h85.334v-25.6h-85.334v25.6zM204.8-14.933h-85.334v25.6h85.334v-25.6zM324.267 437.334h59.733v-17.067h-59.733v17.067zM230.4 394.666h153.6v-17.066h-153.6v17.066zM375.466 275.2h25.6v-17.066h-25.6v17.066z" />
<glyph unicode="&#xf005;" glyph-name="star" horiz-adv-x="476" d="M0 290.572q0 10.572 16 13.143l143.429 20.857 64.285 130q5.428 11.714 14 11.714t14-11.714l64.286-130 143.428-20.857q16-2.572 16-13.143 0-6.286-7.428-13.714l-103.714-101.143 24.572-142.857q0.286-2 0.286-5.714 0-6-3-10.143t-8.714-4.143q-5.428 0-11.428 3.428l-128.286 67.428-128.286-67.428q-6.285-3.428-11.428-3.428-6 0-9 4.143t-3 10.143q0 1.714 0.572 5.714l24.572 142.857-104 101.143q-7.143 7.714-7.143 13.714z" />
<glyph unicode="&#xf006;" glyph-name="star-o" horiz-adv-x="476" d="M0 290.572q0 10.572 16 13.143l143.429 20.857 64.285 130q5.428 11.714 14 11.714t14-11.714l64.286-130 143.428-20.857q16-2.572 16-13.143 0-6.286-7.428-13.714l-103.714-101.143 24.572-142.857q0.286-2 0.286-5.714 0-14.286-11.714-14.286-5.428 0-11.428 3.428l-128.286 67.428-128.286-67.428q-6.285-3.428-11.428-3.428-6 0-9 4.143t-3 10.143q0 1.714 0.572 5.714l24.572 142.857-104 101.143q-7.143 7.714-7.143 13.714zM63.143 273.429l87.429-84.857-20.857-120.286 108 56.857 107.715-56.857-20.572 120.286 87.428 84.857-120.572 17.715-54 109.143-54-109.143z" />
<glyph unicode="&#xf019;" glyph-name="download" horiz-adv-x="476" d="M0 64v91.428q0 11.428 8 19.428t19.428 8h132.857l38.572-38.857q16.572-16 38.857-16t38.857 16l38.857 38.857h132.572q11.428 0 19.428-8t8-19.428v-91.428q0-11.428-8-19.428t-19.428-8h-420.572q-11.428 0-19.428 8t-8 19.428zM92.857 318q4.857 11.143 16.857 11.143h73.143v128q0 7.428 5.429 12.857t12.857 5.429h73.143q7.428 0 12.857-5.429t5.428-12.857v-128h73.143q12 0 16.857-11.143 4.857-11.714-4-20l-128-128q-5.143-5.428-12.857-5.428t-12.857 5.428l-128 128q-8.857 8.286-4 20zM329.143 91.429q0-7.428 5.428-12.857t12.857-5.428 12.857 5.428 5.428 12.857-5.428 12.857-12.857 5.428-12.857-5.428-5.428-12.857zM402.286 91.429q0-7.428 5.428-12.857t12.857-5.428 12.857 5.428 5.428 12.857-5.428 12.857-12.857 5.428-12.857-5.428-5.428-12.857z" />
<glyph unicode="&#xf02b;" glyph-name="tag" d="M0 283.429v118.857q0 14.857 10.857 25.715t25.715 10.857h118.857q15.143 0 33.428-7.572t29.143-18.428l204.285-204q10.572-11.143 10.572-26 0-15.143-10.572-25.714l-140.286-140.571q-11.143-10.572-26-10.572-15.143 0-25.714 10.572l-204.286 204.571q-10.857 10.572-18.428 28.857t-7.572 33.428zM54.857 347.429q0-15.143 10.715-25.857t25.857-10.714 25.857 10.714 10.715 25.857-10.715 25.857-25.857 10.715-25.857-10.715-10.715-25.857z" />
<glyph unicode="&#xf041;" glyph-name="marker" horiz-adv-x="293" d="M0 292.572q0 60.572 42.857 103.429t103.429 42.857 103.428-42.857 42.857-103.429q0-31.143-9.428-51.143l-104-221.143q-4.572-9.428-13.572-14.857t-19.286-5.428-19.285 5.428-13.285 14.857l-104.285 221.143q-9.428 20-9.428 51.143zM73.143 292.572q0-30.285 21.428-51.714t51.715-21.428 51.714 21.428 21.428 51.714-21.428 51.714-51.714 21.428-51.715-21.428-21.428-51.714z" />
<glyph unicode="&#xf071;" glyph-name="warning" d="M4.572 54l219.428 402.286q4.857 8.857 13.428 14t18.572 5.143 18.572-5.143 13.428-14l219.428-402.286q10-18-0.572-36-4.857-8.286-13.286-13.143t-18.143-4.857h-438.857q-9.715 0-18.143 4.857t-13.286 13.143q-10.572 18-0.572 36zM214.857 320l4.857-130.571q0-2.857 2.857-4.714t6.857-1.857h52.857q4 0 6.714 1.857t3 4.714l5.143 131.143q0 3.429-2.857 5.429-3.714 3.143-6.857 3.143h-62.857q-3.143 0-6.857-3.143-2.857-2-2.857-6zM219.429 82.572q0-4 2.714-6.714t6.429-2.714h54.857q3.714 0 6.428 2.714t2.714 6.714v54.286q0 4-2.714 6.714t-6.428 2.714h-54.857q-3.714 0-6.429-2.714t-2.714-6.714v-54.286z" />
<glyph unicode="&#xf073;" glyph-name="calendar" horiz-adv-x="476" d="M0 0v365.714q0 14.857 10.857 25.714t25.715 10.857h36.572v27.429q0 18.857 13.428 32.286t32.285 13.428h18.285q18.857 0 32.286-13.428t13.428-32.286v-27.429h109.714v27.429q0 18.857 13.428 32.286t32.286 13.428h18.286q18.857 0 32.286-13.428t13.428-32.286v-27.429h36.572q14.857 0 25.714-10.857t10.857-25.714v-365.714q0-14.857-10.857-25.714t-25.714-10.857h-402.286q-14.857 0-25.715 10.857t-10.857 25.714zM36.572 0h82.285v82.286h-82.285v-82.286zM36.572 100.572h82.285v91.428h-82.285v-91.428zM36.572 210.286h82.285v82.286h-82.285v-82.286zM109.715 347.429q0-3.714 2.715-6.428t6.428-2.714h18.285q3.714 0 6.429 2.714t2.714 6.428v82.286q0 3.714-2.714 6.428t-6.428 2.714h-18.285q-3.715 0-6.428-2.714t-2.715-6.428v-82.286zM137.143 0h91.429v82.286h-91.428v-82.286zM137.143 100.572h91.429v91.428h-91.428v-91.428zM137.143 210.286h91.429v82.286h-91.428v-82.286zM246.857 0h91.429v82.286h-91.428v-82.286zM246.857 100.572h91.429v91.428h-91.428v-91.428zM246.857 210.286h91.429v82.286h-91.428v-82.286zM329.143 347.429q0-3.714 2.714-6.428t6.428-2.714h18.286q3.714 0 6.428 2.714t2.714 6.428v82.286q0 3.714-2.714 6.428t-6.428 2.714h-18.286q-3.714 0-6.428-2.714t-2.714-6.428v-82.286zM356.572 0h82.286v82.286h-82.286v-82.286zM356.572 100.572h82.286v91.428h-82.286v-91.428zM356.572 210.286h82.286v82.286h-82.286v-82.286z" />
<glyph unicode="&#xf0c9;" glyph-name="navicon" d="M36.571 54.857v36.572q0 7.428 5.428 12.857t12.857 5.428h402.286q7.428 0 12.857-5.428t5.428-12.857v-36.572q0-7.428-5.428-12.857t-12.857-5.428h-402.286q-7.428 0-12.857 5.428t-5.428 12.857zM36.571 201.143v36.572q0 7.428 5.428 12.857t12.857 5.429h402.286q7.428 0 12.857-5.428t5.428-12.857v-36.571q0-7.428-5.428-12.857t-12.857-5.428h-402.286q-7.428 0-12.857 5.428t-5.428 12.857zM36.571 347.429v36.572q0 7.428 5.428 12.857t12.857 5.428h402.286q7.428 0 12.857-5.428t5.428-12.857v-36.572q0-7.428-5.428-12.857t-12.857-5.428h-402.286q-7.428 0-12.857 5.428t-5.428 12.857z" />
<glyph unicode="&#xf104;" glyph-name="angle-left" horiz-adv-x="183" d="M12.857 201.143q0 3.714 2.857 6.572l133.143 133.143q2.857 2.857 6.571 2.857t6.572-2.857l14.286-14.286q2.857-2.857 2.857-6.571t-2.857-6.572l-112.285-112.286 112.285-112.286q2.857-2.857 2.857-6.572t-2.857-6.572l-14.286-14.286q-2.857-2.857-6.572-2.857t-6.572 2.857l-133.143 133.143q-2.857 2.857-2.857 6.572z" />
<glyph unicode="&#xf105;" glyph-name="angle-right" horiz-adv-x="183" d="M3.715 82.286q0 3.714 2.857 6.572l112.285 112.286-112.285 112.286q-2.857 2.857-2.857 6.572t2.857 6.572l14.285 14.286q2.857 2.857 6.572 2.857t6.572-2.857l133.143-133.143q2.857-2.857 2.857-6.572t-2.857-6.572l-133.143-133.143q-2.857-2.857-6.572-2.857t-6.572 2.857l-14.286 14.286q-2.857 2.857-2.857 6.572z" />
<glyph unicode="&#xf106;" glyph-name="angle-up" horiz-adv-x="329" d="M22 137.143q0 3.714 2.857 6.572l133.143 133.143q2.857 2.857 6.572 2.857t6.572-2.857l133.143-133.143q2.857-2.857 2.857-6.572t-2.857-6.572l-14.286-14.286q-2.857-2.857-6.572-2.857t-6.572 2.857l-112.286 112.286-112.285-112.286q-2.857-2.857-6.572-2.857t-6.572 2.857l-14.285 14.286q-2.857 2.857-2.857 6.572z" />
<glyph unicode="&#xf107;" glyph-name="angle-down" horiz-adv-x="329" d="M22 265.143q0 3.714 2.857 6.572l14.285 14.286q2.857 2.857 6.572 2.857t6.572-2.857l112.285-112.286 112.285 112.286q2.857 2.857 6.572 2.857t6.572-2.857l14.286-14.286q2.857-2.857 2.857-6.572t-2.857-6.572l-133.143-133.143q-2.857-2.857-6.571-2.857t-6.572 2.857l-133.143 133.143q-2.857 2.857-2.857 6.572z" />
<glyph unicode="&#xf124;" glyph-name="location" horiz-adv-x="403" d="M0.572 196.857q-1.429 6.286 1.143 12t8.285 8.572l365.714 182.857q3.714 2 8.286 2 7.714 0 12.857-5.428 4.286-4 5.286-9.857t-1.857-11.286l-182.857-365.714q-4.857-10-16.285-10-1.429 0-4.286 0.572-6.286 1.428-10.143 6.428t-3.857 11.286v164.571h-164.571q-6.285 0-11.286 3.857t-6.428 10.143z" />
</font>
</defs>
</svg>
